
<svg version="1.0" xmlns="http://www.w3.org/2000/svg"
 width="222.000000pt" height="277.000000pt" viewBox="0 0 222.000000 277.000000"
 preserveAspectRatio="xMidYMid meet">

<g transform="translate(0.000000,277.000000) scale(0.100000,-0.100000)"
fill="#fff" stroke="none">
<path d="M661 2523 c-5 -10 -59 -133 -120 -274 -60 -141 -118 -272 -127 -291
-15 -33 -14 -48 55 -454 172 -1009 223 -1299 227 -1306 4 -7 834 -12 834 -5 0
1 36 213 80 472 44 259 110 649 147 867 l66 397 -27 63 c-101 235 -231 525
-239 536 -7 9 -109 12 -448 12 -407 0 -439 -1 -448 -17z m549 -418 l0 -125
130 0 130 0 0 -105 0 -105 -130 0 -130 0 0 -305 0 -305 -100 0 -100 0 0 305 0
304 -127 3 -128 3 0 100 0 100 128 3 127 3 0 124 0 125 100 0 100 0 0 -125z"/>
</g>
</svg>
