<svg version="1.0" xmlns="http://www.w3.org/2000/svg"
 width="auto" height="80px" viewBox="0 0 592.000000 166.000000"
 preserveAspectRatio="xMidYMid meet">

<g transform="translate(0.000000,166.000000) scale(0.100000,-0.100000)"
fill="#e9850b" stroke="none">
<path d="M60 870 l0 -730 2890 0 2890 0 0 730 0 730 -2890 0 -2890 0 0 -730z
m5700 0 l0 -650 -2810 0 -2810 0 0 650 0 650 2810 0 2810 0 0 -650z"/>
<path d="M2582 1230 c-23 -5 -59 -19 -80 -30 -100 -57 -119 -185 -41 -274 33
-39 72 -56 190 -86 45 -12 95 -28 111 -36 58 -30 56 -97 -4 -134 -44 -26 -131
-27 -174 -1 -27 17 -64 73 -64 98 0 8 -109 6 -118 -2 -2 -1 0 -26 4 -54 5 -40
15 -61 45 -95 54 -61 109 -81 224 -80 162 1 253 66 263 188 6 71 -11 117 -58
159 -37 34 -81 51 -232 92 -76 20 -113 52 -104 88 8 35 53 57 113 57 62 0 94
-17 115 -60 l17 -35 66 3 c59 3 65 6 65 25 -1 61 -63 140 -131 166 -40 15
-158 21 -207 11z"/>
<path d="M430 885 l0 -345 59 0 58 0 7 46 c3 26 6 146 7 268 l0 221 24 -90
c13 -49 42 -170 65 -267 l42 -178 58 0 c58 0 59 1 68 33 4 17 33 134 63 259
32 137 57 220 61 210 4 -9 7 -126 7 -259 l1 -243 60 0 60 0 0 345 0 346 -102
-3 -102 -3 -33 -130 c-19 -71 -37 -155 -42 -185 -11 -71 -31 -143 -37 -137 -3
3 -31 106 -63 228 l-58 224 -101 3 -102 3 0 -346z"/>
<path d="M1385 1193 c-9 -21 -26 -67 -37 -103 -12 -36 -63 -174 -114 -307
l-92 -243 73 0 73 0 21 62 c12 34 21 70 21 80 0 16 11 18 133 18 l132 0 29
-80 28 -80 75 0 c56 0 74 3 70 13 -3 6 -65 162 -137 345 l-133 332 -63 0 -64
0 -15 -37z m122 -255 l40 -113 -80 -3 c-44 -2 -82 -1 -84 2 -6 6 70 226 78
226 4 0 24 -51 46 -112z"/>
<path d="M1830 1170 l0 -60 95 0 95 0 0 -285 0 -285 65 0 65 0 0 285 0 285
105 0 105 0 0 60 0 60 -265 0 -265 0 0 -60z"/>
<path d="M2990 1218 c1 -7 36 -161 79 -343 l78 -330 75 -3 75 -3 63 238 c80
302 75 289 89 233 7 -25 21 -77 32 -116 10 -38 19 -79 19 -90 0 -10 14 -74 31
-141 l32 -123 73 0 c61 0 73 3 78 18 12 41 156 652 156 661 0 7 -25 11 -65 11
l-64 0 -10 -37 c-5 -21 -29 -127 -52 -236 -24 -108 -46 -194 -49 -190 -4 5
-28 94 -54 198 -26 105 -51 207 -57 228 l-10 38 -77 -3 -77 -3 -60 -222 c-33
-122 -63 -225 -66 -228 -3 -3 -28 98 -55 225 l-49 230 -67 0 c-48 0 -68 -4
-68 -12z"/>
<path d="M4131 1208 c-5 -13 -27 -70 -50 -128 -22 -58 -41 -112 -41 -120 0 -8
-36 -106 -79 -217 l-79 -203 74 0 c72 0 74 0 79 28 3 15 13 51 21 80 l15 52
132 0 132 0 29 -80 28 -80 75 0 c56 0 74 3 70 13 -3 6 -65 162 -137 345 l-133
332 -64 0 c-57 0 -64 -2 -72 -22z m116 -270 l40 -113 -80 -3 c-44 -2 -82 -1
-84 2 -6 6 70 226 78 226 4 0 24 -51 46 -112z"/>
<path d="M4600 885 l0 -348 215 6 c254 6 274 12 317 92 36 66 37 132 3 190
-14 25 -37 48 -55 55 -16 7 -30 14 -30 15 0 2 15 18 33 36 25 25 36 47 41 82
14 91 -8 147 -72 184 -43 25 -51 26 -248 31 l-204 5 0 -348z m379 208 c11 -10
24 -32 27 -50 5 -27 1 -37 -24 -63 -30 -30 -32 -30 -136 -30 l-106 0 0 80 0
80 109 0 c89 0 113 -3 130 -17z m20 -289 c37 -31 42 -79 12 -115 -18 -23 -27
-24 -145 -27 l-126 -4 0 86 0 86 114 0 c109 0 116 -1 145 -26z"/>
<path d="M5280 885 l0 -345 70 0 70 0 0 345 0 345 -70 0 -70 0 0 -345z"/>
</g>
</svg>
